<?xml version="1.0" standalone="no"?><!DOCTYPE svg PUBLIC "-//W3C//DTD SVG 1.1//EN" "http://www.w3.org/Graphics/SVG/1.1/DTD/svg11.dtd"><svg t="1647605206120" class="icon" viewBox="0 0 1024 1024" version="1.1" xmlns="http://www.w3.org/2000/svg" p-id="18461" xmlns:xlink="http://www.w3.org/1999/xlink" width="66" height="66"><defs><style type="text/css"></style></defs><path d="M402.26883 63.762209H143.583163c-43.897789 0-79.595826 35.707246-79.595826 79.595826v258.685667c0 43.88858 35.697013 79.595826 79.595826 79.595826h258.685667c43.897789 0 79.594803-35.707246 79.594802-79.595826V143.357012c0-43.887556-35.697013-79.594803-79.594802-79.594803z m39.797401 338.28047c0 21.948895-17.85874 39.797401-39.797401 39.797401H143.583163c-21.939685 0-39.797401-17.847483-39.797402-39.797401V143.357012c0-21.948895 17.85874-39.798425 39.797402-39.798425h258.685667c21.938662 0 39.797401 17.848507 39.797401 39.798425v258.685667zM879.841739 63.762209H621.156072c-43.897789 0-79.595826 35.707246-79.595826 79.595826v258.685667c0 43.88858 35.698037 79.595826 79.595826 79.595826H879.842763c43.897789 0 79.594803-35.707246 79.594802-79.595826V143.358035c-0.002047-43.88858-35.698037-79.595826-79.595826-79.595826z m39.797402 338.28047c0 21.948895-17.857716 39.797401-39.796378 39.797401H621.156072c-21.939685 0-39.797401-17.847483-39.797401-39.797401V143.357012c0-21.948895 17.85874-39.798425 39.797401-39.798425H879.842763c21.938662 0 39.796378 17.848507 39.796378 39.798425v258.685667z m-517.370311 139.29244H143.583163c-43.897789 0-79.595826 35.70827-79.595826 79.595826V879.616612c0 43.878346 35.697013 79.595826 79.595826 79.595826h258.685667c43.897789 0 79.594803-35.71748 79.594802-79.595826V620.929922c0-43.886533-35.697013-79.594803-79.594802-79.594803z m39.797401 338.28047c0 21.958104-17.85874 39.797401-39.797401 39.797401H143.583163c-21.939685 0-39.797401-17.838274-39.797402-39.797401V620.929922c0-21.947871 17.85874-39.797401 39.797402-39.797402h258.685667c21.938662 0 39.797401 17.848507 39.797401 39.797402v258.685667z m437.775508-338.28047H621.156072c-43.897789 0-79.595826 35.70827-79.595826 79.595826V879.616612c0 43.878346 35.698037 79.595826 79.595826 79.595826H879.842763c43.897789 0 79.594803-35.71748 79.594802-79.595826V620.929922c-0.002047-43.886533-35.698037-79.594803-79.595826-79.594803z m39.797402 338.28047c0 21.958104-17.857716 39.797401-39.796378 39.797401H621.156072c-21.939685 0-39.797401-17.838274-39.797401-39.797401V620.929922c0-21.947871 17.85874-39.797401 39.797401-39.797402H879.842763c21.938662 0 39.796378 17.848507 39.796378 39.797402v258.685667z" p-id="18462"></path></svg>