<?xml version="1.0" standalone="no"?><!DOCTYPE svg PUBLIC "-//W3C//DTD SVG 1.1//EN" "http://www.w3.org/Graphics/SVG/1.1/DTD/svg11.dtd"><svg t="1646576471362" class="icon" viewBox="0 0 1024 1024" version="1.1" xmlns="http://www.w3.org/2000/svg" p-id="6682" xmlns:xlink="http://www.w3.org/1999/xlink" width="50" height="50"><defs><style type="text/css"></style></defs><path d="M512 520.96a218.026667 218.026667 0 1 1 217.6-218.026667 218.026667 218.026667 0 0 1-217.6 218.026667z m0-375.893333a158.293333 158.293333 0 1 0 158.293333 157.866666A158.293333 158.293333 0 0 0 512 145.066667z" p-id="6683"></path><path d="M115.2 938.666667a29.866667 29.866667 0 0 1-29.866667-29.866667 448.426667 448.426667 0 0 1 447.573334-447.573333 441.173333 441.173333 0 0 1 174.08 35.413333 29.44 29.44 0 0 1-24.32 54.613333A388.693333 388.693333 0 0 0 145.066667 908.8a29.866667 29.866667 0 0 1-29.866667 29.866667zM908.8 687.786667h-250.453333a29.866667 29.866667 0 1 1 0-59.306667h250.453333a29.866667 29.866667 0 1 1 0 59.306667zM908.8 813.226667h-250.453333a29.866667 29.866667 0 1 1 0-59.306667h250.453333a29.866667 29.866667 0 1 1 0 59.306667zM908.8 938.666667h-250.453333a29.866667 29.866667 0 1 1 0-59.733334h250.453333a29.866667 29.866667 0 0 1 0 59.733334z" p-id="6684"></path></svg>